<svg width="280" height="44" viewBox="0 0 280 44" fill="none" xmlns="http://www.w3.org/2000/svg">
<path d="M25.7164 20.8356C25.7164 14.1717 29.12 8.3226 34.2691 4.8888C30.6327 1.8333 25.9782 0 20.8582 0C9.33818 0 0 9.3411 0 20.8647C0 32.3883 9.33818 41.7294 20.8582 41.7294C25.9782 41.7294 30.6327 39.8961 34.2691 36.8406C29.12 33.3777 25.7164 27.4995 25.7164 20.8356Z" fill="#13C1B8"/>
<path d="M253.553 20.8939C253.553 27.5578 250.15 33.4069 245 36.8407C248.637 39.8962 253.291 41.7295 258.411 41.7295C269.931 41.7295 279.27 32.3884 279.27 20.8648C279.27 9.34119 269.931 9.83658e-05 258.411 9.73586e-05C253.291 9.6911e-05 248.637 1.8334 245 4.8889C250.15 8.3518 253.553 14.23 253.553 20.8939Z" fill="#13C1B8"/>
<path d="M35.56 16.2H41.824C43.424 16.2 44.784 16.744 45.904 17.832C47.008 18.92 47.56 20.256 47.56 21.84C47.56 23.424 47.008 24.76 45.904 25.848C44.784 26.936 43.424 27.48 41.824 27.48H38.872V33H35.56V16.2ZM38.872 24.384H41.824C42.528 24.384 43.112 24.144 43.576 23.664C44.04 23.168 44.272 22.56 44.272 21.84C44.272 21.104 44.04 20.496 43.576 20.016C43.112 19.536 42.528 19.296 41.824 19.296H38.872V24.384ZM53.0283 26.064V29.832H60.1083V33H49.7163V16.2H59.9883V19.368H53.0283V22.944H59.3883V26.064H53.0283ZM62.4428 16.2H71.9948V19.368H65.7548V33H62.4428V16.2ZM86.8654 33H83.5534V22.752L76.3534 33H73.8334V16.2H77.1454V26.472L84.3454 16.2H86.8654V33ZM97.9499 33.336C95.4379 33.336 93.3499 32.496 91.6859 30.816C90.0379 29.152 89.2139 27.08 89.2139 24.6C89.2139 22.104 90.0379 20.032 91.6859 18.384C93.3499 16.704 95.4379 15.864 97.9499 15.864C99.4699 15.864 100.87 16.224 102.15 16.944C103.446 17.648 104.454 18.608 105.174 19.824L102.318 21.48C101.902 20.728 101.31 20.144 100.542 19.728C99.7739 19.296 98.9099 19.08 97.9499 19.08C96.3179 19.08 94.9979 19.592 93.9899 20.616C92.9979 21.656 92.5019 22.984 92.5019 24.6C92.5019 26.2 92.9979 27.52 93.9899 28.56C94.9979 29.584 96.3179 30.096 97.9499 30.096C98.9099 30.096 99.7739 29.888 100.542 29.472C101.326 29.04 101.918 28.456 102.318 27.72L105.174 29.376C104.454 30.592 103.446 31.56 102.15 32.28C100.87 32.984 99.4699 33.336 97.9499 33.336ZM105.89 16.2H118.25V19.368H113.714V33H110.402V19.368H105.89V16.2ZM120.099 16.2H126.363C127.963 16.2 129.323 16.744 130.443 17.832C131.547 18.92 132.099 20.256 132.099 21.84C132.099 23.424 131.547 24.76 130.443 25.848C129.323 26.936 127.963 27.48 126.363 27.48H123.411V33H120.099V16.2ZM123.411 24.384H126.363C127.067 24.384 127.651 24.144 128.115 23.664C128.579 23.168 128.811 22.56 128.811 21.84C128.811 21.104 128.579 20.496 128.115 20.016C127.651 19.536 127.067 19.296 126.363 19.296H123.411V24.384ZM146.944 33H143.344L142.336 29.976H135.64L134.632 33H131.056L136.936 16.2H141.04L146.944 33ZM139 20.016L136.696 26.88H141.304L139 20.016ZM161.128 16.2V29.832H162.928V36.216H159.616V33H148.576V16.2H151.888V29.832H157.816V16.2H161.128ZM178.178 33H174.866V22.752L167.666 33H165.146V16.2H168.458V26.472L175.658 16.2H178.178V33ZM186.43 16.2H193.15V33H189.838V27.168H187.942L184.078 33H180.358L184.462 26.808C183.39 26.424 182.518 25.768 181.846 24.84C181.174 23.912 180.838 22.888 180.838 21.768C180.838 20.232 181.382 18.92 182.47 17.832C183.558 16.744 184.878 16.2 186.43 16.2ZM186.43 24.264H189.838V19.296H186.43C185.806 19.296 185.27 19.536 184.822 20.016C184.374 20.496 184.15 21.08 184.15 21.768C184.15 22.456 184.374 23.048 184.822 23.544C185.27 24.024 185.806 24.264 186.43 24.264ZM199.967 31.272C199.967 31.832 199.767 32.312 199.367 32.712C198.967 33.112 198.487 33.312 197.927 33.312C197.367 33.312 196.887 33.112 196.487 32.712C196.087 32.312 195.887 31.832 195.887 31.272C195.887 30.712 196.087 30.232 196.487 29.832C196.887 29.432 197.367 29.232 197.927 29.232C198.487 29.232 198.967 29.432 199.367 29.832C199.767 30.232 199.967 30.712 199.967 31.272ZM215.61 30.816C213.914 32.496 211.85 33.336 209.418 33.336C206.986 33.336 204.922 32.496 203.226 30.816C201.546 29.104 200.706 27.032 200.706 24.6C200.706 22.152 201.546 20.088 203.226 18.408C204.922 16.712 206.986 15.864 209.418 15.864C211.85 15.864 213.914 16.712 215.61 18.408C217.306 20.088 218.154 22.152 218.154 24.6C218.154 27.048 217.306 29.12 215.61 30.816ZM205.554 28.56C206.578 29.584 207.866 30.096 209.418 30.096C210.97 30.096 212.258 29.584 213.282 28.56C214.322 27.52 214.842 26.2 214.842 24.6C214.842 23 214.322 21.68 213.282 20.64C212.242 19.6 210.954 19.08 209.418 19.08C207.882 19.08 206.594 19.6 205.554 20.64C204.514 21.68 203.994 23 203.994 24.6C203.994 26.2 204.514 27.52 205.554 28.56ZM220.482 16.2H226.746C228.346 16.2 229.706 16.744 230.826 17.832C231.93 18.92 232.482 20.256 232.482 21.84C232.482 23.424 231.93 24.76 230.826 25.848C229.706 26.936 228.346 27.48 226.746 27.48H223.794V33H220.482V16.2ZM223.794 24.384H226.746C227.45 24.384 228.034 24.144 228.498 23.664C228.962 23.168 229.194 22.56 229.194 21.84C229.194 21.104 228.962 20.496 228.498 20.016C228.034 19.536 227.45 19.296 226.746 19.296H223.794V24.384ZM234.638 16.2H244.19V19.368H237.95V33H234.638V16.2Z" fill="black"/>
</svg>
