<svg width="62" height="62" viewBox="0 0 62 62" fill="none" xmlns="http://www.w3.org/2000/svg">
<path d="M31 0C48.081 0 62 13.888 62 31C62 48.081 48.081 62 31 62C13.888 62 0 48.081 0 31C0 13.888 13.888 0 31 0ZM21.886 24.893C20.987 23.963 19.499 23.963 18.6 24.862C17.67 25.792 17.67 27.249 18.6 28.148L29.357 38.967C29.791 39.401 30.38 39.649 31 39.649C31.62 39.649 32.209 39.401 32.643 38.967L43.4 28.148C43.865 27.714 44.082 27.125 44.082 26.536C44.082 25.916 43.865 25.327 43.4 24.862C42.47 23.963 41.013 23.963 40.114 24.893L31 34.038L21.886 24.893Z" fill="#2AAB9A"/>
</svg>
